<?xml version="1.0" standalone="no"?>
<!DOCTYPE svg PUBLIC "-//W3C//DTD SVG 20010904//EN"
 "http://www.w3.org/TR/2001/REC-SVG-20010904/DTD/svg10.dtd">
<svg version="1.0" xmlns="http://www.w3.org/2000/svg"
 width="500.000000pt" height="500.000000pt" viewBox="0 0 500.000000 500.000000"
 preserveAspectRatio="xMidYMid meet">

<g transform="translate(0.000000,500.000000) scale(0.100000,-0.100000)"
fill="#000000" stroke="none">
<path d="M1970 3630 c-223 -136 -404 -253 -403 -259 2 -6 107 -193 234 -416
225 -397 231 -406 252 -392 45 29 158 97 161 97 3 0 33 -52 68 -115 45 -83 67
-114 79 -111 17 4 777 462 796 480 10 9 -39 102 -218 416 -126 223 -234 409
-239 414 -4 4 -48 -16 -99 -48 l-90 -56 -39 68 c-22 37 -52 90 -68 118 l-29
51 -405 -247z"/>
<path d="M3035 3770 c-48 -15 -106 -70 -131 -124 -43 -93 -27 -184 47 -258
146 -146 389 -46 389 160 0 129 -88 224 -214 229 -33 1 -74 -2 -91 -7z"/>
<path d="M1540 2957 c-97 -33 -142 -89 -148 -184 -6 -83 23 -144 86 -184 150
-95 337 16 320 192 -12 122 -147 214 -258 176z"/>
<path d="M766 2081 c-6 -10 -86 -230 -86 -237 0 -2 13 -4 29 -4 22 0 30 6 35
25 6 22 12 25 51 25 39 0 47 -4 57 -25 8 -18 19 -25 39 -25 l28 0 -23 63 c-12
34 -33 90 -46 125 -20 56 -25 62 -51 62 -15 0 -30 -4 -33 -9z m43 -83 c25 -66
24 -68 -8 -68 -35 0 -35 -1 -19 51 13 45 16 47 27 17z"/>
<path d="M999 2067 c-71 -48 -71 -156 0 -204 115 -77 255 54 178 168 -42 62
-116 78 -178 36z m113 -41 c40 -30 39 -92 0 -122 -45 -34 -112 3 -112 62 0 56
69 93 112 60z"/>
<path d="M1272 1972 c-23 -65 -42 -121 -42 -125 0 -4 11 -7 25 -7 18 0 28 7
35 25 8 22 16 25 55 25 39 0 47 -3 55 -25 7 -18 17 -25 35 -25 14 0 25 3 25 8
0 4 -19 60 -42 125 -41 115 -43 117 -73 117 -30 0 -32 -2 -73 -118z m98 -24
c0 -13 -8 -18 -25 -18 -28 0 -31 11 -13 61 l12 34 12 -30 c7 -17 13 -38 14
-47z"/>
<path d="M1620 1965 l0 -125 25 0 c23 0 25 3 25 50 l0 50 40 0 c36 0 40 3 40
25 0 23 -4 25 -40 25 -36 0 -40 3 -40 25 0 23 3 25 50 25 47 0 50 2 50 25 0
24 -2 25 -75 25 l-75 0 0 -125z"/>
<path d="M1865 2078 c-3 -7 -23 -64 -45 -125 l-40 -113 30 0 c23 0 31 5 36 25
5 22 11 25 54 25 43 0 49 -3 54 -25 5 -20 13 -25 36 -25 17 0 30 1 30 3 0 1
-20 56 -44 122 -42 117 -44 120 -75 123 -19 2 -33 -2 -36 -10z m53 -97 c16
-52 16 -51 -19 -51 -26 0 -30 3 -24 18 3 9 9 29 12 45 8 38 18 34 31 -12z"/>
<path d="M2070 2070 c-24 -24 -26 -73 -4 -95 9 -9 34 -23 56 -32 26 -10 38
-21 36 -32 -4 -22 -42 -26 -61 -6 -14 13 -20 14 -37 3 -26 -17 -25 -22 6 -47
54 -43 154 -12 154 47 0 29 -36 69 -74 82 -58 19 -55 58 3 45 19 -4 32 -1 41
10 33 39 -82 63 -120 25z"/>
<path d="M2270 1965 l0 -125 25 0 c23 0 25 3 25 50 l0 50 50 0 50 0 0 -50 c0
-49 1 -50 30 -50 l30 0 0 125 0 125 -30 0 c-29 0 -30 -1 -30 -50 l0 -50 -50 0
-50 0 0 50 c0 47 -2 50 -25 50 l-25 0 0 -125z"/>
<path d="M2540 1965 l0 -125 30 0 30 0 0 125 0 125 -30 0 -30 0 0 -125z"/>
<path d="M2718 2074 c-78 -42 -76 -178 2 -219 16 -8 47 -15 70 -15 32 0 48 7
78 34 34 32 37 38 37 91 0 53 -3 59 -37 91 -31 28 -45 34 -80 34 -24 -1 -55
-7 -70 -16z m117 -59 c14 -13 25 -36 25 -50 0 -33 -42 -75 -75 -75 -33 0 -75
42 -75 75 0 33 42 75 75 75 14 0 37 -11 50 -25z"/>
<path d="M2970 1965 l0 -125 25 0 c23 0 24 2 27 81 l3 81 59 -81 c50 -68 64
-81 88 -81 l28 0 0 125 0 125 -25 0 c-23 0 -24 -2 -27 -82 l-3 -82 -60 82
c-50 67 -65 81 -87 82 l-28 0 0 -125z"/>
<path d="M3380 1965 l0 -125 25 0 c23 0 25 3 25 50 l0 50 55 0 55 0 0 -50 c0
-47 2 -50 25 -50 l25 0 0 125 0 125 -25 0 c-23 0 -25 -3 -25 -50 l0 -50 -55 0
-55 0 0 50 c0 47 -2 50 -25 50 l-25 0 0 -125z"/>
<path d="M3652 1989 c3 -96 4 -102 31 -125 45 -38 129 -30 164 15 8 10 12 53
13 114 0 97 0 97 -25 97 -25 0 -25 -1 -25 -81 0 -95 -10 -119 -48 -119 -45 0
-52 16 -52 112 l0 88 -31 0 -31 0 4 -101z"/>
<path d="M3920 1965 l0 -125 73 0 c89 0 117 16 117 64 0 19 -7 39 -15 46 -11
9 -12 16 -4 26 5 7 11 27 11 45 2 50 -29 69 -113 69 l-69 0 0 -125z m125 50
c0 -15 -8 -21 -32 -23 -30 -3 -33 -1 -33 23 0 24 3 26 33 23 24 -2 32 -8 32
-23z m10 -100 c0 -16 -8 -21 -37 -23 -35 -3 -38 -1 -38 23 0 24 3 26 38 23 29
-2 37 -7 37 -23z"/>
</g>
</svg>
